<svg data-v-582584ce="" width="1em" height="1em" viewBox="0 0 14 14" fill="none"
    xmlns="http://www.w3.org/2000/svg" opacity="0.7" class="list_label_icon"
    style="font-size: 14px; transform: rotate(0deg);">
    <path
        d="M2.00022 2.00017C2.00013 1.5 2.5 1 2.99964 1L6.69962 1.00023C6.86529 1.00024 6.9996 1.13455 6.9996 1.30023V4.44327C6.9996 5.56328 7.85026 6.00007 8.89961 6.00007H11.7C11.8657 6.00007 12 6.13438 12 6.30007L12 12C12 12.5 11.1493 13.0001 10.1 13.0001H2.99964C2.5 13.0001 1.99999 12.5 2 12L2.00022 2.00017Z"
        fill="currentcolor"></path>
    <path opacity="0.5"
        d="M8.67111 1.17069C8.60813 1.1077 8.50041 1.1523 8.5004 1.24138L8.5 3.60339C8.5 4.09857 8.91591 4.5 9.42897 4.5L11.7586 4.49999C11.8477 4.49999 11.8923 4.39228 11.8293 4.32928L8.67111 1.17069Z"
        fill="currentcolor"></path>
</svg>