<svg width="153" height="44" viewBox="0 0 153 44" fill="none" xmlns="http://www.w3.org/2000/svg">
<path fill-rule="evenodd" clip-rule="evenodd" d="M64.4589 24.6901H55.1455L54.556 28.888H63.166L62.2597 31.2832H54.2205L53.1248 39.0786H50.834L53.1872 22.293H65.3622L64.4589 24.6901Z" fill="black"/>
<path fill-rule="evenodd" clip-rule="evenodd" d="M72.0894 39.0801H70.7507C66.8284 39.0801 65.1376 37.1464 65.6813 33.2846L66.5361 27.1914H68.8299L67.9751 33.2846C67.7775 34.6846 68.0074 35.6494 68.665 36.1816C69.1489 36.5151 69.6306 36.6819 71.0885 36.6819C73.4011 36.6819 73.9854 35.8255 74.3183 34.2592C74.4427 33.6859 75.311 27.1914 75.311 27.1914H77.6049C77.6049 27.1914 76.6824 33.7209 76.5227 34.9052C76.3604 36.0898 75.6709 39.0801 72.0894 39.0801Z" fill="black"/>
<path fill-rule="evenodd" clip-rule="evenodd" d="M80.8056 39.0786H78.5117L80.865 22.293H83.1588L80.8056 39.0786Z" fill="black"/>
<path fill-rule="evenodd" clip-rule="evenodd" d="M85.7678 39.0786H83.4766L85.8302 22.293H88.124L85.7678 39.0786Z" fill="black"/>
<path fill-rule="evenodd" clip-rule="evenodd" d="M100.13 35.3805C99.7836 37.845 98.0792 39.0782 95.0226 39.0782H88.9395L90.1997 36.6799H95.3612C96.2235 36.6799 96.8348 36.5794 97.1974 36.3803C97.557 36.18 97.7711 35.8465 97.8361 35.3805C97.9579 34.5162 97.3867 34.0837 96.1239 34.0837H93.6324C90.6378 34.0837 89.3069 32.9172 89.6342 30.5867C89.8127 29.3212 90.4405 28.3857 91.5226 27.7872C92.3098 27.3859 93.2322 27.1895 94.3005 27.1895H100.482L99.3721 29.4849H93.9758C92.7126 29.4849 92.031 29.8519 91.9284 30.5867C91.8499 31.119 92.0716 31.451 92.5856 31.5839C92.7723 31.6516 93.2345 31.6855 93.9679 31.6855H96.4591C97.7223 31.6855 98.7071 32.0186 99.4101 32.6827C100.057 33.2831 100.297 34.1827 100.13 35.3805Z" fill="black"/>
<path fill-rule="evenodd" clip-rule="evenodd" d="M110.722 33.084C110.873 32.0206 110.695 31.1518 110.189 30.4867C109.686 29.8226 108.934 29.4865 107.936 29.4865H104.546L103.524 36.7805H106.916C107.844 36.7805 108.688 36.447 109.448 35.7807C110.138 35.1167 110.565 34.2197 110.722 33.084ZM113.119 33.084C112.875 34.8171 112.139 36.2483 110.919 37.3809C109.696 38.511 108.252 39.0801 106.591 39.0801H103.202L102.626 43.176H100.332L102.577 27.1914H108.26C109.921 27.1914 111.206 27.7564 112.112 28.8891C113.024 29.9551 113.36 31.3539 113.119 33.084Z" fill="black"/>
<path fill-rule="evenodd" clip-rule="evenodd" d="M123.299 32.1515C123.521 30.47 122.35 29.4985 120.835 29.4985C119.001 29.4985 117.773 30.3846 117.148 32.1515H123.299ZM125.35 34.4308H116.829C116.713 35.3534 117.089 35.9482 117.603 36.3265C118.127 36.6434 118.987 36.8019 120.189 36.8019H124.979L124.397 39.0782H119.869C115.893 39.0782 114.176 37.1501 114.716 33.291C114.938 31.7126 115.533 30.3846 116.507 29.3076C117.711 27.9171 119.258 27.2207 121.154 27.2207C123.048 27.2207 126.57 27.9468 125.35 34.4308Z" fill="black"/>
<path fill-rule="evenodd" clip-rule="evenodd" d="M135.971 32.1406C136.339 30.1948 135.017 29.4792 133.502 29.4792C131.665 29.4792 130.434 30.3669 129.807 32.1406H135.971ZM138.024 34.4225H129.487C129.382 35.3504 129.747 35.9429 130.264 36.3219C130.788 36.6404 131.652 36.7977 132.852 36.7977H137.651L137.07 39.0797H132.533C128.549 39.0797 126.826 37.1456 127.369 33.28C127.591 31.699 128.189 30.3669 129.163 29.2895C130.369 27.8967 131.922 27.1992 133.821 27.1992C135.72 27.1992 139.226 27.9479 138.024 34.4225Z" fill="black"/>
<path fill-rule="evenodd" clip-rule="evenodd" d="M148.415 36.6804L149.424 29.4854H145.834C144.969 29.4854 144.201 29.7538 143.527 30.2864C142.702 30.9527 142.204 31.8847 142.039 33.0825C141.869 34.2822 142.104 35.2157 142.742 35.8805C143.265 36.4146 143.96 36.6804 144.822 36.6804H148.415ZM150.471 39.0786H144.387C142.991 39.0786 141.831 38.5776 140.908 37.5786C139.87 36.4455 139.483 34.95 139.745 33.0825C140.005 31.2196 140.816 29.7199 142.169 28.5868C143.297 27.6548 144.593 27.1899 146.056 27.1899H149.746L150.433 22.293H152.827L150.471 39.0786Z" fill="black"/>
<path d="M25.3791 13.7007C25.3848 13.7312 25.3908 13.7568 25.3964 13.7858C25.52 14.2924 25.7643 14.7242 26.0833 15.0987C27.2759 16.5002 29.5028 17.0445 30.2325 17.3566C30.491 17.4661 31.2124 17.6174 31.9714 17.8779C32.5805 18.088 33.2099 18.3699 33.6348 18.7603C33.6495 18.7734 33.6637 18.7821 33.6754 18.7934C33.7036 18.822 33.7355 18.8498 33.7611 18.8754C33.905 19.0324 34.0173 19.2007 34.0891 19.3893C34.0977 19.4152 34.109 19.4457 34.115 19.4702C34.1721 19.6539 34.1868 19.856 34.1522 20.0702C34.0861 20.4963 33.7644 21.0459 33.2501 21.6753C33.2125 21.7269 33.1693 21.7773 33.1264 21.8293C30.5545 24.8806 23.7729 29.7327 19.0431 32.5051C19.0172 32.5183 18.9969 32.5296 18.9713 32.5413C18.5171 32.8059 18.0865 33.0592 17.6724 33.2738C14.8709 34.7377 13.9053 35.3426 9.99464 36.4678C9.96533 36.4798 9.93978 36.4851 9.91348 36.4941C6.81328 37.3934 5.35355 38.1707 5.25586 38.2257C9.05756 36.9056 11.2729 37.4856 12.7875 37.7766C14.1206 38.0322 16.0376 38.7941 18.227 39.7397C20.1264 40.5629 22.2759 41.303 24.0374 41.8643C26.181 42.5463 29.2643 43.5631 32.5689 43.9037C35.2757 44.1887 38.5228 43.9414 42.6863 41.7724C42.5112 41.8556 42.2008 41.9866 41.7612 42.1206C41.75 42.1221 41.7413 42.1262 41.7323 42.1308C40.2155 42.5866 37.2208 43.0331 33.1437 41.4728C33.1291 41.463 33.1118 41.4585 33.0949 41.4513C32.8161 41.3421 32.5287 41.2251 32.2356 41.0971C32.2153 41.0873 32.1954 41.0813 32.1781 41.07C32.1694 41.067 32.1608 41.0655 32.1522 41.0613C31.3564 40.7052 29.7298 40.0043 27.8936 39.2402C27.8192 39.2044 27.7414 39.1724 27.6636 39.1427C25.3273 38.1681 22.7013 37.1201 21.0428 36.5717C21.0315 36.5672 21.0199 36.5645 21.009 36.5589C20.5258 36.3989 20.1264 36.2867 19.8389 36.2288C19.8851 36.2265 20.2327 36.2592 20.6667 36.2969H20.6723C21.3994 36.3628 22.362 36.455 22.5747 36.4606C26.2298 36.5397 30.9855 35.9788 35.908 33.5719C47.971 27.6718 52.7094 13.0905 40.0486 4.50607C40.0257 4.48725 40.0028 4.46956 39.9769 4.45525C39.9626 4.45111 39.9536 4.43944 39.9393 4.43229C37.3734 2.71503 34.7842 1.73067 33.1753 1.22663C33.1437 1.21647 33.1178 1.20932 33.0949 1.20104C32.9337 1.1521 32.7902 1.10994 32.6523 1.07268C32.6263 1.06289 32.5978 1.05536 32.5689 1.04971C31.9883 0.881074 31.6205 0.79939 31.5487 0.78772C31.5401 0.783203 31.5345 0.783203 31.5345 0.783203C31.5345 0.783203 31.5085 0.817834 31.454 0.888603C30.6695 1.87597 24.5401 9.75234 25.3791 13.7007Z" fill="url(#paint0_linear_2918_58622)"/>
<path fill-rule="evenodd" clip-rule="evenodd" d="M17.3127 16.0422C19.3556 17.9522 28.7261 18.4318 24.7264 24.4023C19.2493 32.584 13.9679 34.7157 13.6403 34.9445C5.2009 32.2139 -0.376899 25.7612 0.0198782 18.1852C0.545533 8.13837 11.5828 0 24.6689 0C27.0714 0 29.3788 0.273286 31.534 0.782969C30.6202 1.48388 14.8186 13.7118 17.3127 16.0422Z" fill="#D7261C"/>
<path fill-rule="evenodd" clip-rule="evenodd" d="M117.082 14.3809H127.798L127.057 12.1269C126.944 11.6048 126.665 11.0849 126.161 11.0849H119.597C119.148 11.0849 118.733 11.6575 118.43 12.1438L117.082 14.3809ZM114.512 16.5484L117.453 11.6217C118.532 9.9082 118.532 9.9082 119.741 9.9082H126.304C127.707 9.9082 127.696 9.9082 128.2 11.6575L129.834 16.5668L128.704 17.034L128.21 15.561H122.876L122.444 19.0994H127.775L127.632 20.2792H122.297L121.858 23.8707H128.905L128.762 25.0492H113.49L113.633 23.8707H120.68L121.119 20.2792H115.802L115.948 19.0994H121.266L121.698 15.561H116.384L115.489 17.0532L114.512 16.5484Z" fill="black"/>
<path fill-rule="evenodd" clip-rule="evenodd" d="M117.395 14.2036H127.553L126.886 12.1848C126.838 11.9529 126.654 11.2655 126.161 11.2655H119.597C119.188 11.2655 118.729 11.9988 118.579 12.239L117.395 14.2036ZM128.043 14.5582H116.768L118.277 12.0549C118.61 11.5193 119.06 10.9091 119.597 10.9091H126.161C126.674 10.9091 127.073 11.3506 127.23 12.0926L128.043 14.5582ZM113.691 24.873H128.601L128.704 24.0479H121.657L122.14 20.1056H127.475L127.573 19.2786H122.242L122.719 15.3855H128.336L128.813 16.8005L129.613 16.4681L128.019 11.6676C127.563 10.0854 127.563 10.0854 126.303 10.0854H119.74C118.631 10.0854 118.631 10.0854 117.603 11.7191L114.763 16.4798L115.424 16.8227L116.285 15.3855H121.898L121.422 19.2786H116.104L116.006 20.1056H121.32L120.836 24.0479H113.79L113.691 24.873ZM128.918 25.228H113.289L113.476 23.6952H120.523L120.918 20.4587H115.604L115.791 18.924H121.109L121.497 15.7401H116.482L115.556 17.2865L114.263 16.6217L117.303 11.5332C118.392 9.7971 118.433 9.73047 119.74 9.73047H126.303C127.784 9.73047 127.845 9.78166 128.36 11.5689L128.37 11.61L130.055 16.671L128.595 17.2729L128.08 15.7401H123.032L122.641 18.924H127.975L127.784 20.4587H122.453L122.058 23.6952H129.105L128.918 25.228Z" fill="black"/>
<path fill-rule="evenodd" clip-rule="evenodd" d="M134.541 8.93359L134.092 12.7159L136.41 10.8349L134.541 8.93359Z" fill="#D7261C"/>
<path fill-rule="evenodd" clip-rule="evenodd" d="M147.076 24.8287H134.936C133.724 24.8287 132.894 23.8413 133.04 22.6443L134.173 13.3984H135.352L134.218 22.6443C134.15 23.1984 134.524 23.6519 135.079 23.6519H147.219L147.076 24.8287Z" fill="black"/>
<path fill-rule="evenodd" clip-rule="evenodd" d="M134.329 13.5753L133.216 22.6645C133.148 23.2051 133.295 23.7114 133.628 24.0882C133.948 24.4499 134.415 24.6509 134.935 24.6509H146.918L147.017 23.8273H135.078C134.769 23.8273 134.486 23.7046 134.292 23.4844C134.091 23.2544 133.999 22.9491 134.04 22.6216L135.15 13.5753H134.329ZM147.232 25.0074H134.935C134.312 25.0074 133.751 24.7654 133.359 24.3204C132.957 23.8702 132.784 23.2649 132.862 22.6216L134.016 13.2207H135.552L134.391 22.6645C134.363 22.8896 134.425 23.0974 134.557 23.2476C134.683 23.3925 134.87 23.4712 135.078 23.4712H147.419L147.232 25.0074Z" fill="black"/>
<path fill-rule="evenodd" clip-rule="evenodd" d="M142.663 16.8852L143.031 13.8821H146.285C146.667 13.8821 146.939 14.196 146.891 14.5762L146.694 16.2065C146.646 16.592 146.299 16.8852 145.917 16.8852H142.663ZM141.485 16.8852H138.193C137.812 16.8852 137.553 16.592 137.601 16.2065L137.802 14.5762C137.849 14.196 138.18 13.8821 138.561 13.8821H141.853L141.485 16.8852ZM144.593 18.0635H145.775C147.644 18.0635 147.644 18.0567 147.868 16.2065L148.069 14.5762C148.195 13.5546 147.449 12.7039 146.431 12.7039H143.174L143.32 11.5238H148.689L148.832 10.3456H143.463L143.63 8.97461H142.455L142.289 10.3456H136.9L136.757 11.5238H142.142L141.996 12.7039H138.707C136.859 12.7039 136.855 12.7039 136.624 14.5762L136.423 16.2065C136.304 17.2142 137.029 18.0635 138.051 18.0635H139.368C138.296 19.6083 136.948 20.8396 135.229 21.8627L135.749 22.8516C137.843 21.6019 139.45 20.0589 140.699 18.0635H141.339L140.74 22.9574H141.918L142.517 18.0635H143.021L146.67 22.8859L147.647 22.124L144.593 18.0635Z" fill="black"/>
<path fill-rule="evenodd" clip-rule="evenodd" d="M138.56 14.0608C138.274 14.0608 138.012 14.3014 137.978 14.598L137.777 16.2298C137.76 16.3631 137.794 16.4839 137.869 16.5727C137.947 16.6578 138.06 16.7056 138.192 16.7056H141.324L141.651 14.0608H138.56ZM141.641 17.0621H138.192C137.957 17.0621 137.75 16.9699 137.604 16.8099C137.457 16.6424 137.395 16.4207 137.426 16.1839L137.627 14.5551C137.682 14.0778 138.094 13.7062 138.56 13.7062H142.053L141.641 17.0621ZM142.863 16.7056H145.916C146.212 16.7056 146.481 16.4704 146.516 16.1839L146.717 14.5551C146.734 14.4207 146.696 14.2961 146.614 14.2024C146.533 14.112 146.417 14.0608 146.284 14.0608H143.186L142.863 16.7056ZM145.916 17.0621H142.458L142.873 13.7062H146.284C146.519 13.7062 146.73 13.7981 146.88 13.9671C147.03 14.1376 147.098 14.3627 147.067 14.598L146.866 16.2298C146.808 16.6955 146.39 17.0621 145.916 17.0621ZM140.939 22.7781H141.76L142.359 17.8891H143.105L146.703 22.6366L147.4 22.0908L144.238 17.8891H145.774C147.482 17.8891 147.482 17.8891 147.694 16.1869L147.891 14.5551C147.949 14.1083 147.823 13.6855 147.54 13.3686C147.261 13.055 146.87 12.8807 146.43 12.8807H142.975L143.159 11.3464H148.527L148.63 10.5205H143.261L143.428 9.15147H142.611L142.441 10.5205H137.055L136.957 11.3464H142.342L142.151 12.8807H138.706C137.011 12.8807 137.011 12.8807 136.8 14.598L136.599 16.2298C136.548 16.6699 136.671 17.0911 136.946 17.4046C137.222 17.7152 137.613 17.8891 138.05 17.8891H139.704L139.51 18.1654C138.465 19.6745 137.137 20.9058 135.462 21.9289L135.816 22.6024C137.814 21.3816 139.364 19.8657 140.548 17.9708L140.599 17.8891H141.539L140.939 22.7781ZM146.638 23.138L142.931 18.2422H142.672L142.073 23.1331H140.538L141.137 18.2422H140.797C139.554 20.1947 137.933 21.7531 135.84 23.0033L135.676 23.1004L134.992 21.7957L135.135 21.7087C136.728 20.7609 138.005 19.6248 139.02 18.2422H138.05C137.511 18.2422 137.025 18.0273 136.684 17.6418C136.34 17.2529 136.184 16.7229 136.249 16.1839L136.446 14.5551C136.688 12.6011 136.773 12.5261 138.706 12.5261H141.838L141.94 11.7006H136.558L136.742 10.1644H142.128L142.298 8.79688H143.829L143.663 10.1644H149.031L148.841 11.7006H143.476L143.374 12.5261H146.43C146.968 12.5261 147.459 12.7407 147.806 13.1348C148.156 13.5289 148.309 14.0488 148.245 14.598L148.044 16.2298C147.809 18.1654 147.721 18.2422 145.774 18.2422H144.95L147.891 22.1555L146.638 23.138Z" fill="black"/>
<defs>
<linearGradient id="paint0_linear_2918_58622" x1="43.4633" y1="35.929" x2="22.0218" y2="22.021" gradientUnits="userSpaceOnUse">
<stop stop-color="#F92F23"/>
<stop offset="1" stop-color="#620D11"/>
</linearGradient>
</defs>
</svg>
