<svg
    data-v-0a4cc614=""
    xmlns="http://www.w3.org/2000/svg"
    width="1em"
    height="1em"
    viewBox="0 0 16 16"
    opacity="0.5"
    class="search-icon"
    style="font-size: 14px; transform: rotate(0deg)"
>
    <defs>
        <clipPath id="mg-icon138a">
            <rect width="16" height="16" rx="0"></rect>
        </clipPath>
    </defs>
    <g clip-path="url(#mg-icon138a)">
        <path
            fill="currentcolor"
            fill-opacity=".85"
            fill-rule="evenodd"
            d="M10.872 10.164q.271-.332.482-.706.211-.374.355-.778.145-.405.218-.828Q12 7.43 12 7q0-.123-.006-.245-.006-.123-.018-.245-.012-.122-.03-.244-.018-.121-.042-.241-.024-.12-.054-.24-.03-.119-.065-.236-.036-.118-.077-.233-.042-.116-.089-.23-.047-.113-.1-.224-.052-.11-.11-.219-.057-.108-.12-.214-.063-.105-.132-.207-.068-.102-.141-.2-.073-.1-.15-.194-.079-.095-.161-.186-.083-.09-.17-.178-.086-.086-.177-.169-.091-.082-.186-.16t-.194-.151q-.098-.073-.2-.141-.102-.069-.207-.132-.106-.063-.214-.12-.108-.058-.22-.11-.11-.053-.224-.1-.113-.047-.229-.089-.115-.041-.233-.077-.117-.035-.236-.065-.12-.03-.24-.054t-.241-.042q-.122-.018-.244-.03t-.245-.018Q7.123 2 7 2t-.245.006q-.123.006-.245.018-.122.012-.244.03-.121.018-.241.042-.12.024-.24.054-.119.03-.236.065-.118.036-.233.077-.116.042-.23.089-.113.047-.224.1-.11.052-.219.11-.108.057-.214.12-.105.063-.207.132-.102.068-.2.141-.1.073-.194.15-.095.079-.186.161-.09.083-.178.17-.086.086-.169.177-.082.091-.16.186t-.151.193q-.073.1-.141.201-.069.102-.132.207-.063.106-.12.214-.058.108-.11.22-.053.11-.1.224-.047.113-.089.229-.041.115-.077.233-.035.117-.065.236-.03.12-.054.24t-.042.241q-.018.122-.03.244t-.018.245Q2 6.877 2 7t.006.245q.006.123.018.245.012.122.03.244.018.121.042.241.024.12.054.24.03.119.065.236.036.118.077.233.042.116.089.23.047.113.1.224.052.11.11.219.057.108.12.214.063.105.132.207.068.102.141.2.073.1.15.194.079.095.161.186.083.09.17.178.086.086.177.169.091.082.186.16t.193.151q.1.073.201.141.102.069.207.132.106.063.214.12.108.058.22.11.11.053.224.1.113.047.229.089.115.041.233.077.117.035.236.065.12.03.24.054t.241.042q.122.018.244.03t.245.018Q6.877 12 7 12q.43 0 .852-.073.423-.073.828-.218.404-.144.778-.355t.706-.483l2.75 2.75.707-.707zM7 3q.197 0 .392.02.196.019.388.057.193.038.381.095t.37.132q.181.076.355.168.173.093.336.202.164.11.316.234.151.125.29.264.14.139.264.29.125.152.234.316.109.163.202.336.092.174.168.355.075.182.132.37.057.188.095.38.038.193.058.389Q11 6.803 11 7t-.02.392q-.019.196-.057.388-.038.193-.095.381t-.132.37q-.076.181-.168.355-.093.173-.202.336-.11.164-.234.316-.125.151-.264.29-.139.14-.29.264-.152.125-.316.234-.163.109-.336.202-.174.092-.355.168-.182.075-.37.132-.188.057-.38.095-.193.038-.389.058Q7.197 11 7 11t-.392-.02q-.196-.019-.388-.057-.193-.038-.381-.095t-.37-.132q-.181-.076-.355-.168-.173-.093-.336-.202-.164-.11-.316-.234-.151-.125-.29-.264-.14-.139-.264-.29-.125-.152-.234-.316-.109-.163-.202-.336-.092-.174-.168-.355-.075-.182-.132-.37-.057-.188-.095-.38-.038-.193-.058-.389Q3 7.197 3 7t.02-.392q.019-.196.057-.388.038-.193.095-.381t.132-.37q.076-.181.168-.355.093-.173.202-.336.11-.164.234-.316.125-.151.264-.29.139-.14.29-.264.152-.125.316-.234.163-.109.336-.202.174-.092.355-.168.182-.075.37-.132.188-.057.38-.095.193-.038.389-.058Q6.803 3 7 3"
        ></path>
    </g>
</svg>